# xmcd
#
# Track frame offsets:
#	150
#	12893
#	27658
#	43265
#	60485
#	74611
#	89068
#	103371
#	121075
#	133183
#	153414
#	166433
#
# Disc length: 2440 seconds
#
# Revision: 1
# Processed by: cddbd v1.5.2PL0 Copyright (c) Steve Scherf et al.
# Submitted via: audiograbber 1.83.01
#
DISCID=af09860c
DTITLE=Cole Swindell - Cole Swindell
DYEAR=2014
DGENRE=Country
TTITLE0=Hey Y'all
TTITLE1=Chillin' It
TTITLE2=Swayin'
TTITLE3=Hope You Get Lonely Tonight
TTITLE4=Let Me See Ya Girl
TTITLE5=Ain't Worth The Whiskey
TTITLE6=Brought To You By Beer
TTITLE7=I Just Want You
TTITLE8=Get Up
TTITLE9=Dozen Roses and A Six-Pack
TTITLE10=Down Home Boys
TTITLE11=The Back Roads and The Back Row
EXTD=
EXTT0=
EXTT1=
EXTT2=
EXTT3=
EXTT4=
EXTT5=
EXTT6=
EXTT7=
EXTT8=
EXTT9=
EXTT10=
EXTT11=
PLAYORDER=
